# xmcd
#
# Track frame offsets: 
#        150
#        16037
#        25852
#        42770
#        53960
#        65615
#        71892
#        84272
#        96365
#        104995
#        117512
#        129165
#        143930
#        157287
#        172027
#        182940
#        195205
#        204882
#        216052
#        228762
#        240822
#        253522
#        266800
#        277185
#        287665
#        297722
#        307270
#        313960
#        324355
#
# Disc length: 4458 seconds
#
# Revision: 0
# Processed by: cddbd v1.5.1PL0 Copyright (c) Steve Scherf et al.
# Submitted via: ExactAudioCopy v0.95a5
#
DISCID=bd11681d
DTITLE=Various Artist - Throw Out the Lifeline
DYEAR=1952
DGENRE=Gospel
TTITLE0=the Sallie Martin Singers/God Is A Battle Axe
TTITLE1=the Sallie Martin Singers/Didn't It Rain
TTITLE2=the Sallie Martin Singers/I'll Make It Somehow
TTITLE3=the Sallie Martin Singers/Oh Yes, He Set Me Free
TTITLE4=the Sallie Martin Singers/He's Able To Carry Me Through
TTITLE5=the Sallie Martin Singers/Oh What A Time
TTITLE6=the Sallie Martin Singers/Throw Out The Lifeline
TTITLE7=the Sallie Martin Singers/Eyes Hath Not Seen
TTITLE8=the Sallie Martin Singers/The Good Old Way
TTITLE9=the Sallie Martin Singers/Jesus Is Waiting
TTITLE10=Cora Martin/One Of These Mornings
TTITLE11=Cora Martin/Thy Servant's Prayer, Amen
TTITLE12=Cora Martin/On The Other Side
TTITLE13=Cora Martin/He Put His Trust In Me
TTITLE14=Cora Martin/I Know That He Cares For Me
TTITLE15=Cora Martin/Lord, I Need You Every Day Of My Life
TTITLE16=the Sallie Martin Singers/Great Day
TTITLE17=the Sallie Martin Singers/I Know It's Well With My Soul
TTITLE18=the Sallie Martin Singers/Jesus Said
TTITLE19=the Sallie Martin Singers/I Called The Lord And Got An Answer
TTITLE20=the Sallie Martin Singers/There IYs A Fountain Filled With Bl
TTITLE20=ood
TTITLE21=the Sallie Martin Singers/It's a Long Long Way [live]
TTITLE22=the Sallie Martin Singers/I'm Bound For The Promised Land
TTITLE23=the Sallie Martin Singers/Hold To God's Unchanging Hand
TTITLE24=the Sallie Martin Singers/Ain't That Good News
TTITLE25=the Sallie Martin Singers/(There Is No Sorrow) That Heaven Ca
TTITLE25=nnot Heal
TTITLE26=the Sallie Martin Singers/God Is A Battle Axe
TTITLE27=the Sallie Martin Singers/I'm Getting Nearer To My Lord
TTITLE28=Cora Martin/Every Once In A While
EXTD=
EXTT0=
EXTT1=
EXTT2=
EXTT3=
EXTT4=
EXTT5=
EXTT6=
EXTT7=
EXTT8=
EXTT9=
EXTT10=
EXTT11=
EXTT12=
EXTT13=
EXTT14=
EXTT15=
EXTT16=
EXTT17=
EXTT18=
EXTT19=
EXTT20=
EXTT21=
EXTT22=
EXTT23=
EXTT24=
EXTT25=
EXTT26=
EXTT27=
EXTT28=
PLAYORDER=
